# xmcd
#
# Track frame offsets:
#	150
#	17286
#	36901
#	57156
#	70847
#	84411
#	103252
#	117161
#	138611
#	152359
#	170619
#
# Disc length: 2576 seconds
#
# Revision: 0
# Processed by: cddbd v1.5.2PL0 Copyright (c) Steve Scherf et al.
# Submitted via: EasyCDDAExtractor 4.6.9.1
#
DISCID=880a0e0b
DTITLE=Max Stalling - Topaz City
DYEAR=2007
DGENRE=Country
TTITLE0=If Only The Good Die Young
TTITLE1=Never Need To Fall In Love Again
TTITLE2=Topaz City
TTITLE3=Ping, Pong, Pool
TTITLE4=Lank and Lonesome and Low and Loose At Both Ends
TTITLE5=Skyview Cabaret
TTITLE6=Lonely Days
TTITLE7=If It's Up To Me
TTITLE8=Don't Fall Alone
TTITLE9=Goodnight Never Meant Goodbye
TTITLE10=How Blue Can You Go?
EXTD=
EXTT0=
EXTT1=
EXTT2=
EXTT3=
EXTT4=
EXTT5=
EXTT6=
EXTT7=
EXTT8=
EXTT9=
EXTT10=
PLAYORDER=
